<svg xmlns="http://www.w3.org/2000/svg" viewBox="0 0 50 50"><defs><style>.a{fill:#212529;}</style></defs><path class="a" d="M30.85,13.07H19.15a6,6,0,0,0-6,6V30.82a6,6,0,0,0,6,6h11.7a6,6,0,0,0,6-6V19.11A6,6,0,0,0,30.85,13.07ZM25.12,32.18A7.22,7.22,0,1,1,32.34,25,7.22,7.22,0,0,1,25.12,32.18ZM32.76,19a1.72,1.72,0,1,1,1.72-1.72A1.72,1.72,0,0,1,32.76,19Z"/><path class="a" d="M25.12,20.34A4.63,4.63,0,1,0,29.74,25,4.63,4.63,0,0,0,25.12,20.34Z"/><path class="a" d="M25,0A25,25,0,1,0,50,25,25,25,0,0,0,25,0ZM39.66,30.82a8.82,8.82,0,0,1-8.81,8.8H19.15a8.82,8.82,0,0,1-8.81-8.8V19.11a8.82,8.82,0,0,1,8.81-8.8h11.7a8.82,8.82,0,0,1,8.81,8.8Z"/></svg>