<svg xmlns="http://www.w3.org/2000/svg" viewBox="0 0 50 50"><defs><style>.a{fill:#212529;}</style></defs><path class="a" d="M25,0A25,25,0,1,0,50,25,25,25,0,0,0,25,0ZM38.92,16.46a.68.68,0,0,1-.14.43,10.92,10.92,0,0,1-2.18,2.27c-.12.09-.33.19-.33.36,0,4.51-1.15,9-4.43,12.27-4.18,4.15-10.45,5.28-16,3.74a15.09,15.09,0,0,1-3.1-1.24c-.32-.18-.64-.36-1-.57-.08-.07-.14-.13-.07-.17s.12,0,.37,0A10.89,10.89,0,0,0,16.69,33c.81-.28,2.55-.85,3-1.62,0,0,0,0,0,0-.21,0-.41,0-.61-.09a6,6,0,0,1-4.47-3.74c-.06-.15,0-.22.16-.19A6.41,6.41,0,0,0,17,27.22a3.14,3.14,0,0,1-.72-.22,5.77,5.77,0,0,1-3.55-4.59,2.86,2.86,0,0,1,0-.65c0-.14.07-.19.21-.11a5.62,5.62,0,0,0,2.16.61c-.24-.19-.47-.4-.69-.61-1.65-1.56-2.29-4.75-1-6.73.11-.16.18-.16.31,0,3,3.44,6.75,5.05,11.24,5.72.11,0,.13,0,.11-.13a6,6,0,0,1,.06-2.35,5.71,5.71,0,0,1,1.11-2.23,5.81,5.81,0,0,1,1.86-1.51,5.63,5.63,0,0,1,2.3-.65,5.32,5.32,0,0,1,2.43.39,5.61,5.61,0,0,1,1.58,1,2.64,2.64,0,0,1,.29.29.22.22,0,0,0,.22.06,14.07,14.07,0,0,0,3.27-1.25.14.14,0,0,1,.15,0s0,.09,0,.14A5.16,5.16,0,0,1,37.41,16c-.26.32-.91,1.13-1.35,1.2a11,11,0,0,0,2.75-.79c.11-.05.11-.07.11,0Z"/></svg>