<svg xmlns="http://www.w3.org/2000/svg" viewBox="0 0 50 50"><defs><style>.a{fill:#212529;}</style></defs><path class="a" d="M25,0A25,25,0,1,0,50,25,25,25,0,0,0,25,0Zm1.14,38.79a14.33,14.33,0,0,1-6.83-1.74l-7.82,2.1,2.09-7.78a14.35,14.35,0,1,1,12.56,7.42Z"/><path class="a" d="M26.14,12.79a11.63,11.63,0,0,0-9.95,17.68l.31.5-1.17,4.34,4.37-1.17.49.29a11.64,11.64,0,1,0,5.95-21.64Zm6.84,16a3.5,3.5,0,0,1-2.6,1.94,5.54,5.54,0,0,1-2.87-.46A11.88,11.88,0,0,1,25,29.14a14.1,14.1,0,0,1-3.95-3.67,15.65,15.65,0,0,1-.91-1.38,7.53,7.53,0,0,1-.87-2,3.91,3.91,0,0,1-.12-.91,3.59,3.59,0,0,1,1.26-2.86A1.63,1.63,0,0,1,22.23,18a3.86,3.86,0,0,1,1.2,1.81,3,3,0,0,1,.38,1.62A3.08,3.08,0,0,1,23,22.83a.58.58,0,0,0-.07.78,9.34,9.34,0,0,0,4.65,4,.51.51,0,0,0,.66-.14c.35-.43.69-1.26,1.22-1.48a2.41,2.41,0,0,1,2.06.46c.55.33,1.47.73,1.62,1.41A1.77,1.77,0,0,1,33,28.83Z"/></svg>